PathFileType	4	(X/Y/Z)	C:\Users\dbl\Desktop\LZH\BX\bx_y_0_901.trc
DataRate	CameraRate	NumFrames	NumMarkers	Units	OrigDataRate	OrigDataStartFrame	OrigNumFrames
50.00	50.00	      8	43	mm	50.00	763	      1220
Frame#	Time	Top.Head			R.Acromium			L.Acromium			Sternum			R.ASIS			L.ASIS			V.Sacral			R.Thigh.Upper			R.Thigh.Front			R.Thigh.Rear			R.Knee.Lat			R.Knee.Med			R.Shank.Upper			R.Shank.Front			R.Shank.Rear			R.Ankle.Lat			R.Midfoot.Lat			R.Toe.Lat			R.Toe.Tip			R.Toe.Med			R.Ankle.Med			R.Midfoot.Sup			R.Heel			L.Thigh.Upper			L.Thigh.Front			L.Thigh.Rear			L.Knee.Lat			L.Knee.Med			L.Shank.Upper			L.Shank.Front			L.Shank.Rear			L.Ankle.Lat			L.Midfoot.Lat			L.Toe.Lat			L.Toe.Tip			L.Toe.Med			L.Ankle.Med			L.Midfoot.Sup			L.Heel			origin1 front left			origin2 front right			origin 3 back right			origin 4 back leftt			
		X1	Y1	Z1	X2	Y2	Z2	X3	Y3	Z3	X4	Y4	Z4	X5	Y5	Z5	X6	Y6	Z6	X7	Y7	Z7	X8	Y8	Z8	X9	Y9	Z9	X10	Y10	Z10	X11	Y11	Z11	X12	Y12	Z12	X13	Y13	Z13	X14	Y14	Z14	X15	Y15	Z15	X16	Y16	Z16	X17	Y17	Z17	X18	Y18	Z18	X19	Y19	Z19	X20	Y20	Z20	X21	Y21	Z21	X22	Y22	Z22	X23	Y23	Z23	X24	Y24	Z24	X25	Y25	Z25	X26	Y26	Z26	X27	Y27	Z27	X28	Y28	Z28	X29	Y29	Z29	X30	Y30	Z30	X31	Y31	Z31	X32	Y32	Z32	X33	Y33	Z33	X34	Y34	Z34	X35	Y35	Z35	X36	Y36	Z36	X37	Y37	Z37	X38	Y38	Z38	X39	Y39	Z39	X40	Y40	Z40	X41	Y41	Z41	X42	Y42	Z42	X43	Y43	Z43	

763	15.240	-697.97278	251.63327	1827.82410	-611.62720	58.54108	1531.93042	-607.44220	456.04285	1518.46423	-510.59982	264.96286	1405.76648	-505.47983	150.26141	1056.11829	-507.77390	386.54584	1061.82092	-702.85260	244.85037	1047.99609	-540.79901	96.11514	890.64246	-497.54102	157.93704	840.14343	-596.62335	90.84093	748.38434	-636.70886	123.40466	599.95343	-619.33685	230.57692	557.97815	-671.51074	123.03941	542.60596	-588.83392	170.55867	541.43054	-712.31750	126.39626	476.66544	-686.82910	146.61000	214.71535	-615.82965	78.95158	167.94986	-570.88147	52.87790	162.66637	-491.34174	93.90426	160.32794	-531.49139	145.58537	163.21227	-631.64319	220.24876	218.37566	-591.90314	189.94218	167.51018	-716.82220	214.82199	170.08377	-546.77051	435.32471	882.07214	-499.48340	375.91534	834.99707	-594.98676	434.70325	747.73560	-643.31854	413.79788	626.07813	-603.17291	312.13510	571.79810	-653.82745	411.52396	562.10828	-598.58380	371.94510	535.70361	-704.85748	414.55490	511.17035	-678.36713	413.25967	212.63048	-585.35657	468.43430	164.49997	-546.94037	479.80289	159.38840	-486.94775	428.35617	168.07747	-524.14886	387.02094	177.05344	-641.50134	325.73770	207.01135	-593.50775	348.47696	166.97821	-732.22070	342.03180	164.50984	-444.03806	448.66864	148.12016	-450.12460	76.11642	143.60007	-806.25342	82.69188	142.52277	-799.22632	457.47974	145.15002	
764	15.260	-697.18390	251.59012	1827.88037	-611.08197	58.42303	1531.96216	-607.00073	456.03873	1518.46545	-510.38110	264.77008	1405.51306	-505.37616	150.25546	1056.05017	-507.58899	386.50247	1061.77759	-702.72961	244.76840	1048.04919	-540.77380	96.13634	890.56946	-497.45764	157.87856	840.10620	-596.59924	90.81026	748.35638	-636.65668	123.37139	599.95520	-619.26935	230.53612	557.87585	-671.48920	123.01656	542.61682	-588.83142	170.56538	541.40411	-712.29474	126.37508	476.64682	-686.76135	146.62161	214.75407	-615.81830	78.93675	167.90752	-570.90723	52.87963	162.61409	-491.34500	93.89437	160.35445	-531.48395	145.57632	163.22385	-631.64819	220.25696	218.40720	-591.83429	189.98656	167.60042	-716.83710	214.81689	170.09270	-546.73096	435.32721	882.00061	-499.40417	375.91641	834.95740	-594.97668	434.69952	747.72723	-643.32440	413.72794	626.06122	-603.08350	312.13824	571.85492	-653.82837	411.52753	562.10992	-598.58813	371.93457	535.67804	-704.84613	414.55832	511.16714	-678.37231	413.18594	212.65250	-585.36938	468.46652	164.50587	-546.94507	479.80844	159.40361	-486.95648	428.35532	168.07506	-524.13538	387.00827	177.05414	-641.81189	325.67709	206.92746	-593.47736	348.46030	166.96400	-732.21448	342.02689	164.52332	-444.02829	448.68796	148.12024	-450.12393	76.11090	143.58652	-806.25012	82.69238	142.51070	-799.20953	457.50882	145.15724	
765	15.280	-696.31403	251.51349	1827.95703	-610.54895	58.27335	1532.00671	-606.54559	456.00073	1518.48267	-510.04935	264.54410	1405.31238	-505.31821	150.25572	1055.95703	-507.46173	386.47525	1061.75073	-702.60480	244.72021	1048.11462	-540.76398	96.15234	890.49261	-497.37555	157.81851	840.05719	-596.59393	90.74380	748.31287	-636.63110	123.35611	599.93744	-619.25195	230.53276	557.82391	-671.50665	123.04352	542.57471	-588.85376	170.54390	541.38513	-712.28503	126.33451	476.62338	-686.60614	146.60846	214.85028	-615.82715	78.92692	167.87801	-570.93097	52.88591	162.55917	-491.34930	93.88554	160.37419	-531.48499	145.57236	163.21513	-631.65765	220.25281	218.41881	-591.82397	189.98163	167.65161	-716.85516	214.79044	170.12270	-546.68610	435.34137	881.93658	-499.34369	375.94983	834.90808	-594.99011	434.71622	747.74304	-643.34503	413.67770	626.05542	-603.04498	312.18167	571.90216	-653.85132	411.52002	562.08917	-598.60455	371.92014	535.65961	-704.85815	414.56781	511.16721	-678.41412	413.09756	212.73773	-585.39215	468.47510	164.49884	-546.94446	479.80231	159.39555	-486.95163	428.35187	168.05016	-524.14972	386.99576	177.04396	-642.23175	325.61667	206.81165	-593.44147	348.38705	167.03453	-732.22424	342.06866	164.60172	-444.00967	448.71118	148.12300	-450.12070	76.11392	143.58777	-806.26514	82.68456	142.51161	-799.21112	457.48816	145.16609	
766	15.300	-695.33154	251.43568	1828.06396	-610.01538	58.15663	1532.04578	-606.09204	455.93607	1518.50354	-509.53433	264.39029	1405.29028	-505.28305	150.27177	1055.85669	-507.39725	386.45203	1061.71716	-702.49268	244.71008	1048.18188	-540.75177	96.14655	890.41522	-497.30972	157.76045	839.99945	-596.59290	90.65334	748.25641	-636.62164	123.32964	599.89362	-619.27777	230.54387	557.81665	-671.54163	123.09839	542.48486	-588.88843	170.50529	541.37769	-712.29211	126.28819	476.60037	-686.40991	146.57181	214.96814	-615.84625	78.92531	167.87714	-570.94525	52.90722	162.53223	-491.36404	93.87596	160.37927	-531.50006	145.56059	163.19476	-631.66846	220.24622	218.42319	-591.82220	189.96465	167.69418	-716.86096	214.76563	170.14966	-546.64899	435.34415	881.90955	-499.30762	376.01291	834.84430	-595.05261	434.75528	747.77863	-643.37958	413.66632	626.05432	-603.04663	312.23624	571.93378	-653.86951	411.49667	562.06537	-598.61560	371.91373	535.65662	-704.88727	414.57416	511.17316	-678.47632	413.05402	212.88205	-585.41486	468.46786	164.48421	-546.93604	479.79251	159.36905	-486.91980	428.35117	168.03468	-524.18311	386.98624	177.02638	-642.51178	325.56940	206.74033	-593.38464	348.21011	167.23563	-732.25507	342.14450	164.69089	-443.99194	448.72827	148.12689	-450.11978	76.12185	143.59976	-806.29272	82.66302	142.52576	-799.21899	457.42841	145.17960	
767	15.320	-694.23444	251.39468	1828.21484	-609.41022	58.13117	1532.05896	-605.62384	455.86938	1518.51587	-508.89386	264.37454	1405.39575	-505.24533	150.31926	1055.77014	-507.37613	386.42645	1061.65234	-702.41650	244.71747	1048.24707	-540.73224	96.12033	890.35767	-497.26553	157.70947	839.93823	-596.62317	90.57227	748.20819	-636.63501	123.29537	599.83881	-619.31799	230.55791	557.82123	-671.58447	123.15189	542.38525	-588.91406	170.46979	541.37653	-712.31787	126.26748	476.58527	-686.25433	146.52144	215.06236	-615.86279	78.92793	167.89871	-570.95959	52.94051	162.53362	-491.38828	93.87254	160.37468	-531.51086	145.53926	163.17641	-631.67340	220.24907	218.42540	-591.80359	189.96220	167.73824	-716.85907	214.75923	170.14961	-546.62628	435.32690	881.92126	-499.31851	376.06628	834.75916	-595.16656	434.79831	747.81616	-643.42194	413.69193	626.05542	-603.01990	312.23380	571.95374	-653.87976	411.47342	562.04559	-598.61420	371.91125	535.66272	-704.93152	414.56076	511.18240	-678.50360	413.06577	212.96735	-585.42578	468.45670	164.46844	-546.92535	479.78815	159.34171	-486.87256	428.35754	168.03996	-524.21039	386.98126	176.99910	-642.56775	325.58292	206.67159	-593.27777	347.92044	167.57423	-732.27594	342.21420	164.74632	-443.98364	448.72916	148.13048	-450.12631	76.12166	143.60707	-806.31921	82.64196	142.54243	-799.23511	457.36957	145.19617	
768	15.340	-693.02600	251.38791	1828.39404	-608.69403	58.18225	1532.04822	-605.10913	455.82333	1518.51733	-508.25012	264.46375	1405.44482	-505.20731	150.37819	1055.71643	-507.37521	386.39789	1061.55481	-702.38739	244.72504	1048.31042	-540.70929	96.08863	890.33466	-497.25034	157.66013	839.87384	-596.72217	90.53158	748.17328	-636.70746	123.29744	599.78674	-619.35852	230.57759	557.81146	-671.65320	123.20905	542.28473	-588.91644	170.45033	541.37671	-712.35730	126.28734	476.58319	-686.17749	146.46793	215.10928	-615.87299	78.93525	167.92142	-570.97668	52.96193	162.54716	-491.40854	93.87948	160.36871	-531.50348	145.52011	163.16391	-631.66852	220.26144	218.40921	-591.77997	189.97729	167.76414	-716.86395	214.77458	170.13702	-546.60199	435.29208	881.96393	-499.39011	376.08734	834.64410	-595.30658	434.80734	747.83740	-643.46442	413.72351	626.05048	-602.90863	312.11789	571.94281	-653.91284	411.47540	562.01154	-598.60974	371.90469	535.67242	-704.98120	414.52902	511.18311	-678.46625	413.09244	212.88898	-585.41833	468.44012	164.45616	-546.91772	479.79178	159.32060	-486.83585	428.36581	168.05806	-524.21448	386.97171	176.96423	-642.53931	325.64426	206.49500	-593.13818	347.60382	167.94925	-732.25031	342.25076	164.76367	-443.98511	448.71405	148.13245	-450.13809	76.10604	143.59920	-806.33228	82.63815	142.55222	-799.26459	457.34991	145.21358	
769	15.360	-691.71014	251.37242	1828.57910	-607.90430	58.23056	1532.04578	-604.53809	455.80460	1518.51318	-507.67044	264.58817	1405.32532	-505.19058	150.40320	1055.69800	-507.38971	386.36792	1061.43921	-702.40057	244.73186	1048.38135	-540.69464	96.06773	890.33020	-497.28183	157.60634	839.80865	-596.89520	90.52602	748.13074	-636.87225	123.35486	599.74432	-619.43024	230.60861	557.81348	-671.75708	123.26561	542.18561	-588.90204	170.44681	541.38141	-712.40533	126.32764	476.59369	-686.15912	146.42863	215.10806	-615.87335	78.94563	167.93430	-570.98737	52.94669	162.57324	-491.41583	93.89079	160.36319	-531.48346	145.51857	163.15425	-631.66180	220.27223	218.37350	-591.80389	189.97893	167.73344	-716.86902	214.81116	170.14905	-546.56482	435.24985	882.03070	-499.50684	376.09399	834.50488	-595.45532	434.76538	747.83710	-643.51282	413.72812	626.02209	-602.72168	311.92993	571.86212	-653.97778	411.50470	561.95349	-598.61383	371.89365	535.67957	-705.01855	414.49811	511.16675	-678.40076	413.09558	212.71178	-585.39355	468.40921	164.45168	-546.91437	479.80112	159.30296	-486.82675	428.37125	168.08107	-524.19720	386.95120	176.94093	-642.53320	325.69516	206.18774	-593.02679	347.37210	168.21326	-732.18097	342.25888	164.75710	-443.99100	448.69528	148.13026	-450.13910	76.08733	143.58633	-806.33148	82.64795	142.56137	-799.29834	457.37521	145.22794	
770	15.380	-690.29700	251.32098	1828.77734	-607.08411	58.21109	1532.08191	-603.92706	455.79303	1518.50659	-507.15485	264.68890	1405.06982	-505.20966	150.36801	1055.69629	-507.43628	386.32260	1061.31787	-702.44250	244.73949	1048.47205	-540.71533	96.05499	890.31909	-497.38348	157.55905	839.75513	-597.11932	90.50064	748.09009	-637.13043	123.42978	599.71997	-619.57080	230.64687	557.88196	-671.88062	123.29006	542.11682	-588.90106	170.45178	541.39105	-712.46991	126.35703	476.61649	-686.16882	146.42213	215.07393	-615.86298	78.95167	167.94040	-570.98145	52.90517	162.61108	-491.41565	93.89725	160.35562	-531.46698	145.53767	163.14743	-631.66663	220.26955	218.35193	-591.92352	189.93018	167.61867	-716.86304	214.85649	170.18536	-546.53906	435.20526	882.10101	-499.64252	376.10388	834.36823	-595.62457	434.69748	747.82025	-643.59863	413.69299	625.96136	-602.50415	311.80246	571.69916	-654.03943	411.54016	561.89313	-598.64307	371.87015	535.66510	-705.05151	414.47382	511.14227	-678.36536	413.08389	212.60426	-585.36621	468.37332	164.45671	-546.91516	479.81122	159.28897	-486.85519	428.37769	168.09454	-524.16803	386.92978	176.95259	-642.48859	325.71744	205.89627	-592.97211	347.25937	168.32147	-732.10803	342.25403	164.73993	-443.99600	448.68643	148.12125	-450.11270	76.08344	143.58676	-806.32385	82.66125	142.57683	-799.32330	457.41837	145.22972	
